<mxfile host="Electron" agent="Mozilla/5.0 (X11; Linux x86_64) AppleWebKit/537.36 (KHTML, like Gecko) draw.io/26.0.4 Chrome/128.0.6613.186 Electron/32.2.5 Safari/537.36" version="26.0.4">
  <diagram name="Page-1" id="JVNSsbSNXyJpVmneNrK4">
    <mxGraphModel dx="1114" dy="1198" grid="1" gridSize="10" guides="1" tooltips="1" connect="1" arrows="1" fold="1" page="1" pageScale="1" pageWidth="850" pageHeight="1100" math="0" shadow="0">
      <root>
        <mxCell id="0" />
        <mxCell id="1" parent="0" />
        <mxCell id="LL1A58i53ipHkt84gxrO-18" value="" style="rounded=0;whiteSpace=wrap;html=1;strokeColor=#DD344C;fillColor=none;dashed=1;" vertex="1" parent="1">
          <mxGeometry x="80" y="250" width="715" height="555" as="geometry" />
        </mxCell>
        <mxCell id="LL1A58i53ipHkt84gxrO-20" style="edgeStyle=orthogonalEdgeStyle;rounded=0;orthogonalLoop=1;jettySize=auto;html=1;exitX=1;exitY=0.5;exitDx=0;exitDy=0;entryX=0;entryY=0.5;entryDx=0;entryDy=0;" edge="1" parent="1" source="LL1A58i53ipHkt84gxrO-1" target="LL1A58i53ipHkt84gxrO-6">
          <mxGeometry relative="1" as="geometry" />
        </mxCell>
        <mxCell id="LL1A58i53ipHkt84gxrO-21" style="edgeStyle=orthogonalEdgeStyle;rounded=0;orthogonalLoop=1;jettySize=auto;html=1;entryX=0;entryY=0.5;entryDx=0;entryDy=0;" edge="1" parent="1" source="LL1A58i53ipHkt84gxrO-1" target="LL1A58i53ipHkt84gxrO-12">
          <mxGeometry relative="1" as="geometry" />
        </mxCell>
        <mxCell id="LL1A58i53ipHkt84gxrO-22" value="sync" style="edgeStyle=orthogonalEdgeStyle;rounded=0;orthogonalLoop=1;jettySize=auto;html=1;entryX=0;entryY=0.5;entryDx=0;entryDy=0;" edge="1" parent="1" source="LL1A58i53ipHkt84gxrO-1" target="LL1A58i53ipHkt84gxrO-9">
          <mxGeometry relative="1" as="geometry" />
        </mxCell>
        <mxCell id="LL1A58i53ipHkt84gxrO-1" value="us-east-2" style="points=[[0,0],[0.25,0],[0.5,0],[0.75,0],[1,0],[1,0.25],[1,0.5],[1,0.75],[1,1],[0.75,1],[0.5,1],[0.25,1],[0,1],[0,0.75],[0,0.5],[0,0.25]];outlineConnect=0;gradientColor=none;html=1;whiteSpace=wrap;fontSize=12;fontStyle=0;container=1;pointerEvents=0;collapsible=0;recursiveResize=0;shape=mxgraph.aws4.group;grIcon=mxgraph.aws4.group_region;strokeColor=#00A4A6;fillColor=none;verticalAlign=top;align=left;spacingLeft=30;fontColor=#147EBA;dashed=1;" vertex="1" parent="1">
          <mxGeometry x="100" y="455" width="290" height="150" as="geometry" />
        </mxCell>
        <mxCell id="LL1A58i53ipHkt84gxrO-3" value="Multi-Region &lt;b&gt;Primary&lt;/b&gt; Key" style="sketch=0;outlineConnect=0;fontColor=#232F3E;gradientColor=none;fillColor=#DD344C;strokeColor=none;dashed=0;verticalLabelPosition=bottom;verticalAlign=top;align=center;html=1;fontSize=12;fontStyle=0;aspect=fixed;pointerEvents=1;shape=mxgraph.aws4.addon;" vertex="1" parent="LL1A58i53ipHkt84gxrO-1">
          <mxGeometry x="106" y="40" width="78" height="40" as="geometry" />
        </mxCell>
        <mxCell id="LL1A58i53ipHkt84gxrO-5" value="&lt;div style=&quot;forced-color-adjust: none; font-family: Helvetica; font-size: 12px; font-style: normal; font-variant-ligatures: normal; font-variant-caps: normal; letter-spacing: normal; orphans: 2; text-indent: 0px; text-transform: none; widows: 2; word-spacing: 0px; -webkit-text-stroke-width: 0px; white-space: nowrap; background-color: rgb(251, 251, 251); text-decoration-thickness: initial; text-decoration-style: initial; text-decoration-color: initial;&quot;&gt;&lt;span style=&quot;font-weight: 400; color: light-dark(rgb(0, 0, 0), rgb(0, 0, 0));&quot;&gt;arn:aws:kms:&lt;/span&gt;&lt;font style=&quot;color: rgb(140, 79, 255);&quot;&gt;&lt;b&gt;us-east-2&lt;/b&gt;:348726195837:&lt;/font&gt;&lt;/div&gt;&lt;div style=&quot;forced-color-adjust: none; font-family: Helvetica; font-size: 12px; font-style: normal; font-variant-ligatures: normal; font-variant-caps: normal; letter-spacing: normal; orphans: 2; text-indent: 0px; text-transform: none; widows: 2; word-spacing: 0px; -webkit-text-stroke-width: 0px; white-space: nowrap; background-color: rgb(251, 251, 251); text-decoration-thickness: initial; text-decoration-style: initial; text-decoration-color: initial;&quot;&gt;&lt;span style=&quot;color: light-dark(rgb(0, 0, 0), rgb(0, 0, 0)); font-weight: 400;&quot;&gt;key/&lt;/span&gt;&lt;b style=&quot;&quot;&gt;&lt;font style=&quot;color: light-dark(rgb(0, 148, 2), rgb(237, 237, 237));&quot;&gt;key-bb3a7cde1234ffab5678eeaa1122ccdd&lt;/font&gt;&lt;/b&gt;&lt;/div&gt;" style="text;whiteSpace=wrap;html=1;align=left;" vertex="1" parent="LL1A58i53ipHkt84gxrO-1">
          <mxGeometry x="15" y="100" width="260" height="40" as="geometry" />
        </mxCell>
        <mxCell id="LL1A58i53ipHkt84gxrO-2" value="" style="sketch=0;points=[[0,0,0],[0.25,0,0],[0.5,0,0],[0.75,0,0],[1,0,0],[0,1,0],[0.25,1,0],[0.5,1,0],[0.75,1,0],[1,1,0],[0,0.25,0],[0,0.5,0],[0,0.75,0],[1,0.25,0],[1,0.5,0],[1,0.75,0]];outlineConnect=0;fontColor=#232F3E;fillColor=#DD344C;strokeColor=#ffffff;dashed=0;verticalLabelPosition=bottom;verticalAlign=top;align=center;html=1;fontSize=12;fontStyle=0;aspect=fixed;shape=mxgraph.aws4.resourceIcon;resIcon=mxgraph.aws4.key_management_service;" vertex="1" parent="1">
          <mxGeometry x="80" y="250" width="40" height="40" as="geometry" />
        </mxCell>
        <mxCell id="LL1A58i53ipHkt84gxrO-6" value="sa-east-1" style="points=[[0,0],[0.25,0],[0.5,0],[0.75,0],[1,0],[1,0.25],[1,0.5],[1,0.75],[1,1],[0.75,1],[0.5,1],[0.25,1],[0,1],[0,0.75],[0,0.5],[0,0.25]];outlineConnect=0;gradientColor=none;html=1;whiteSpace=wrap;fontSize=12;fontStyle=0;container=1;pointerEvents=0;collapsible=0;recursiveResize=0;shape=mxgraph.aws4.group;grIcon=mxgraph.aws4.group_region;strokeColor=#00A4A6;fillColor=none;verticalAlign=top;align=left;spacingLeft=30;fontColor=#147EBA;dashed=1;" vertex="1" parent="1">
          <mxGeometry x="485" y="275" width="290" height="150" as="geometry" />
        </mxCell>
        <mxCell id="LL1A58i53ipHkt84gxrO-7" value="Multi-Region &lt;b&gt;Primary&lt;/b&gt; Key" style="sketch=0;outlineConnect=0;fontColor=#232F3E;gradientColor=none;fillColor=#DD344C;strokeColor=none;dashed=0;verticalLabelPosition=bottom;verticalAlign=top;align=center;html=1;fontSize=12;fontStyle=0;aspect=fixed;pointerEvents=1;shape=mxgraph.aws4.addon;" vertex="1" parent="LL1A58i53ipHkt84gxrO-6">
          <mxGeometry x="106" y="40" width="78" height="40" as="geometry" />
        </mxCell>
        <mxCell id="LL1A58i53ipHkt84gxrO-8" value="&lt;div style=&quot;forced-color-adjust: none; font-family: Helvetica; font-size: 12px; font-style: normal; font-variant-ligatures: normal; font-variant-caps: normal; letter-spacing: normal; orphans: 2; text-indent: 0px; text-transform: none; widows: 2; word-spacing: 0px; -webkit-text-stroke-width: 0px; white-space: nowrap; background-color: rgb(251, 251, 251); text-decoration-thickness: initial; text-decoration-style: initial; text-decoration-color: initial;&quot;&gt;&lt;span style=&quot;font-weight: 400; color: light-dark(rgb(0, 0, 0), rgb(0, 0, 0));&quot;&gt;arn:aws:kms:&lt;/span&gt;&lt;font style=&quot;color: rgb(140, 79, 255);&quot;&gt;&lt;b&gt;sa-east-1&lt;/b&gt;:348726195837:&lt;/font&gt;&lt;/div&gt;&lt;div style=&quot;forced-color-adjust: none; font-family: Helvetica; font-size: 12px; font-style: normal; font-variant-ligatures: normal; font-variant-caps: normal; letter-spacing: normal; orphans: 2; text-indent: 0px; text-transform: none; widows: 2; word-spacing: 0px; -webkit-text-stroke-width: 0px; white-space: nowrap; background-color: rgb(251, 251, 251); text-decoration-thickness: initial; text-decoration-style: initial; text-decoration-color: initial;&quot;&gt;&lt;span style=&quot;color: light-dark(rgb(0, 0, 0), rgb(0, 0, 0)); font-weight: 400;&quot;&gt;key/&lt;/span&gt;&lt;b style=&quot;&quot;&gt;&lt;font style=&quot;color: light-dark(rgb(0, 148, 2), rgb(237, 237, 237));&quot;&gt;key-bb3a7cde1234ffab5678eeaa1122ccdd&lt;/font&gt;&lt;/b&gt;&lt;/div&gt;" style="text;whiteSpace=wrap;html=1;align=left;" vertex="1" parent="LL1A58i53ipHkt84gxrO-6">
          <mxGeometry x="15" y="100" width="260" height="40" as="geometry" />
        </mxCell>
        <mxCell id="LL1A58i53ipHkt84gxrO-9" value="eu-west-1" style="points=[[0,0],[0.25,0],[0.5,0],[0.75,0],[1,0],[1,0.25],[1,0.5],[1,0.75],[1,1],[0.75,1],[0.5,1],[0.25,1],[0,1],[0,0.75],[0,0.5],[0,0.25]];outlineConnect=0;gradientColor=none;html=1;whiteSpace=wrap;fontSize=12;fontStyle=0;container=1;pointerEvents=0;collapsible=0;recursiveResize=0;shape=mxgraph.aws4.group;grIcon=mxgraph.aws4.group_region;strokeColor=#00A4A6;fillColor=none;verticalAlign=top;align=left;spacingLeft=30;fontColor=#147EBA;dashed=1;" vertex="1" parent="1">
          <mxGeometry x="485" y="455" width="290" height="150" as="geometry" />
        </mxCell>
        <mxCell id="LL1A58i53ipHkt84gxrO-10" value="Multi-Region &lt;b&gt;Primary&lt;/b&gt; Key" style="sketch=0;outlineConnect=0;fontColor=#232F3E;gradientColor=none;fillColor=#DD344C;strokeColor=none;dashed=0;verticalLabelPosition=bottom;verticalAlign=top;align=center;html=1;fontSize=12;fontStyle=0;aspect=fixed;pointerEvents=1;shape=mxgraph.aws4.addon;" vertex="1" parent="LL1A58i53ipHkt84gxrO-9">
          <mxGeometry x="106" y="40" width="78" height="40" as="geometry" />
        </mxCell>
        <mxCell id="LL1A58i53ipHkt84gxrO-11" value="&lt;div style=&quot;forced-color-adjust: none; font-family: Helvetica; font-size: 12px; font-style: normal; font-variant-ligatures: normal; font-variant-caps: normal; letter-spacing: normal; orphans: 2; text-indent: 0px; text-transform: none; widows: 2; word-spacing: 0px; -webkit-text-stroke-width: 0px; white-space: nowrap; background-color: rgb(251, 251, 251); text-decoration-thickness: initial; text-decoration-style: initial; text-decoration-color: initial;&quot;&gt;&lt;div style=&quot;background-color: rgb(251, 251, 251);&quot;&gt;&lt;span style=&quot;color: light-dark(rgb(0, 0, 0), rgb(0, 0, 0));&quot;&gt;arn:aws:kms:&lt;/span&gt;&lt;font style=&quot;color: rgb(140, 79, 255);&quot;&gt;&lt;b&gt;eu-west-1&lt;/b&gt;:348726195837:&lt;/font&gt;&lt;/div&gt;&lt;div style=&quot;background-color: rgb(251, 251, 251);&quot;&gt;&lt;span style=&quot;color: light-dark(rgb(0, 0, 0), rgb(0, 0, 0));&quot;&gt;key/&lt;/span&gt;&lt;b&gt;&lt;font style=&quot;color: light-dark(rgb(0, 148, 2), rgb(237, 237, 237));&quot;&gt;key-bb3a7cde1234ffab5678eeaa1122ccdd&lt;/font&gt;&lt;/b&gt;&lt;/div&gt;&lt;/div&gt;" style="text;whiteSpace=wrap;html=1;align=left;" vertex="1" parent="LL1A58i53ipHkt84gxrO-9">
          <mxGeometry x="15" y="100" width="260" height="40" as="geometry" />
        </mxCell>
        <mxCell id="LL1A58i53ipHkt84gxrO-12" value="ap-southeast-2" style="points=[[0,0],[0.25,0],[0.5,0],[0.75,0],[1,0],[1,0.25],[1,0.5],[1,0.75],[1,1],[0.75,1],[0.5,1],[0.25,1],[0,1],[0,0.75],[0,0.5],[0,0.25]];outlineConnect=0;gradientColor=none;html=1;whiteSpace=wrap;fontSize=12;fontStyle=0;container=1;pointerEvents=0;collapsible=0;recursiveResize=0;shape=mxgraph.aws4.group;grIcon=mxgraph.aws4.group_region;strokeColor=#00A4A6;fillColor=none;verticalAlign=top;align=left;spacingLeft=30;fontColor=#147EBA;dashed=1;" vertex="1" parent="1">
          <mxGeometry x="485" y="635" width="290" height="150" as="geometry" />
        </mxCell>
        <mxCell id="LL1A58i53ipHkt84gxrO-13" value="Multi-Region &lt;b&gt;Primary&lt;/b&gt; Key" style="sketch=0;outlineConnect=0;fontColor=#232F3E;gradientColor=none;fillColor=#DD344C;strokeColor=none;dashed=0;verticalLabelPosition=bottom;verticalAlign=top;align=center;html=1;fontSize=12;fontStyle=0;aspect=fixed;pointerEvents=1;shape=mxgraph.aws4.addon;" vertex="1" parent="LL1A58i53ipHkt84gxrO-12">
          <mxGeometry x="106" y="40" width="78" height="40" as="geometry" />
        </mxCell>
        <mxCell id="LL1A58i53ipHkt84gxrO-14" value="&lt;div style=&quot;forced-color-adjust: none; font-family: Helvetica; font-size: 12px; font-style: normal; font-variant-ligatures: normal; font-variant-caps: normal; letter-spacing: normal; orphans: 2; text-indent: 0px; text-transform: none; widows: 2; word-spacing: 0px; -webkit-text-stroke-width: 0px; white-space: nowrap; background-color: rgb(251, 251, 251); text-decoration-thickness: initial; text-decoration-style: initial; text-decoration-color: initial;&quot;&gt;&lt;span style=&quot;font-weight: 400; color: light-dark(rgb(0, 0, 0), rgb(0, 0, 0));&quot;&gt;arn:aws:kms:&lt;/span&gt;&lt;font style=&quot;color: rgb(140, 79, 255);&quot;&gt;&lt;b&gt;ap-southeast-2&lt;/b&gt;:348726195837:&lt;/font&gt;&lt;/div&gt;&lt;div style=&quot;forced-color-adjust: none; font-family: Helvetica; font-size: 12px; font-style: normal; font-variant-ligatures: normal; font-variant-caps: normal; letter-spacing: normal; orphans: 2; text-indent: 0px; text-transform: none; widows: 2; word-spacing: 0px; -webkit-text-stroke-width: 0px; white-space: nowrap; background-color: rgb(251, 251, 251); text-decoration-thickness: initial; text-decoration-style: initial; text-decoration-color: initial;&quot;&gt;&lt;span style=&quot;color: light-dark(rgb(0, 0, 0), rgb(0, 0, 0)); font-weight: 400;&quot;&gt;key/&lt;/span&gt;&lt;b style=&quot;&quot;&gt;&lt;font style=&quot;color: light-dark(rgb(0, 148, 2), rgb(237, 237, 237));&quot;&gt;key-bb3a7cde1234ffab5678eeaa1122ccdd&lt;/font&gt;&lt;/b&gt;&lt;/div&gt;" style="text;whiteSpace=wrap;html=1;align=left;" vertex="1" parent="LL1A58i53ipHkt84gxrO-12">
          <mxGeometry x="15" y="100" width="260" height="40" as="geometry" />
        </mxCell>
      </root>
    </mxGraphModel>
  </diagram>
</mxfile>
